<?xml version="1.0" encoding="UTF-8"?>
<!DOCTYPE svg PUBLIC "-//W3C//DTD SVG 1.1//EN" "http://www.w3.org/Graphics/SVG/1.1/DTD/svg11.dtd">
<svg xmlns="http://www.w3.org/2000/svg" version="1.1" width="250px" height="250px" style="shape-rendering:geometricPrecision; text-rendering:geometricPrecision; image-rendering:optimizeQuality; fill-rule:evenodd; clip-rule:evenodd" xmlns:xlink="http://www.w3.org/1999/xlink">
<g><path style="opacity:0.19" fill="#000204" d="M 110.5,4.5 C 161.581,0.878392 201.081,20.2117 229,62.5C 252.794,108.917 250.46,153.917 222,197.5C 187.569,238.661 144.069,253.161 91.5,241C 44.4386,226.273 15.9386,194.773 6,146.5C -1.475,91.9659 17.6917,49.7992 63.5,20C 78.3335,11.8883 94.0002,6.72167 110.5,4.5 Z"/></g>
<g><path style="opacity:1" fill="#1e69af" d="M 77.5,20.5 C 87.787,36.8134 84.4537,49.6467 67.5,59C 38.2251,87.1132 30.7251,120.28 45,158.5C 56.7351,183.564 75.9018,200.064 102.5,208C 108.246,214.694 114.913,220.194 122.5,224.5C 130.519,219.49 138.186,213.99 145.5,208C 178,198.833 198.833,178 208,145.5C 216.028,107.237 204.528,76.4039 173.5,53C 152.116,39.1817 128.95,35.0151 104,40.5C 98.4392,32.1003 91.9392,24.4336 84.5,17.5C 122.273,4.12353 157.94,8.62353 191.5,31C 236.743,67.4524 249.909,113.286 231,168.5C 207.057,218.567 167.224,242.067 111.5,239C 58.5351,230.035 25.3685,199.535 12,147.5C 4.43389,100.176 19.2672,61.6755 56.5,32C 62.9561,27.1066 69.9561,23.2733 77.5,20.5 Z"/></g>
<g><path style="opacity:1" fill="#fbfbfc" d="M 84.5,17.5 C 91.9392,24.4336 98.4392,32.1003 104,40.5C 128.95,35.0151 152.116,39.1817 173.5,53C 204.528,76.4039 216.028,107.237 208,145.5C 198.833,178 178,198.833 145.5,208C 138.186,213.99 130.519,219.49 122.5,224.5C 114.913,220.194 108.246,214.694 102.5,208C 75.9018,200.064 56.7351,183.564 45,158.5C 30.7251,120.28 38.2251,87.1132 67.5,59C 84.4537,49.6467 87.787,36.8134 77.5,20.5C 79.4261,18.7073 81.7594,17.7073 84.5,17.5 Z"/></g>
<g><path style="opacity:1" fill="#edf0f7" d="M 127.5,22.5 C 127.44,21.9569 127.107,21.6236 126.5,21.5C 125.516,24.4281 125.183,27.4281 125.5,30.5C 124.189,26.3171 124.189,21.9838 125.5,17.5C 128.064,20.2802 130.397,23.2802 132.5,26.5C 133.321,23.5535 133.821,20.5535 134,17.5C 134.828,21.8713 134.661,26.2047 133.5,30.5C 131.122,28.1215 129.122,25.4549 127.5,22.5 Z"/></g>
<g><path style="opacity:1" fill="#dbe3f1" d="M 148.5,20.5 C 149.376,20.3691 150.043,20.7025 150.5,21.5C 148.906,24.9913 148.239,28.658 148.5,32.5C 150.199,32.6602 151.866,32.4935 153.5,32C 154.734,28.7999 156.067,25.6332 157.5,22.5C 157.722,26.6631 156.388,30.4964 153.5,34C 149.167,35.4894 146.833,33.9894 146.5,29.5C 147.172,26.4877 147.839,23.4877 148.5,20.5 Z"/></g>
<g><path style="opacity:1" fill="#e4ebf5" d="M 108.5,18.5 C 109.117,18.6107 109.617,18.944 110,19.5C 110.998,23.4726 111.331,27.4726 111,31.5C 110.457,29.3686 109.624,27.3686 108.5,25.5C 106.775,26.0149 105.108,26.6816 103.5,27.5C 104.681,29.198 104.681,30.8647 103.5,32.5C 101.316,24.5704 100.983,21.9037 102.5,24.5C 104.5,24.5 106.5,24.5 108.5,24.5C 108.5,22.5 108.5,20.5 108.5,18.5 Z"/></g>
<g><path style="opacity:1" fill="#e2e9f3" d="M 116.5,17.5 C 117.376,17.3691 118.043,17.7025 118.5,18.5C 120.038,22.4069 121.704,26.2402 123.5,30C 123.167,30.1667 122.833,30.3333 122.5,30.5C 121.376,29.086 120.376,27.586 119.5,26C 118.207,25.51 116.873,25.3433 115.5,25.5C 115.509,27.3084 115.009,28.9751 114,30.5C 114.027,26.0492 114.861,21.7159 116.5,17.5 Z"/></g>
<g><path style="opacity:1" fill="#2a6fb3" d="M 116.5,21.5 C 118.465,21.9483 118.798,22.9483 117.5,24.5C 116.614,23.675 116.281,22.675 116.5,21.5 Z"/></g>
<g><path style="opacity:1" fill="#dde5f2" d="M 138.5,18.5 C 139.302,19.9516 139.802,21.6183 140,23.5C 142.029,21.74 144.196,20.5733 146.5,20C 144.983,21.6851 143.316,23.1851 141.5,24.5C 142.706,27.0794 144.039,29.5794 145.5,32C 144.365,32.7494 143.365,32.5827 142.5,31.5C 141.498,29.4899 140.498,27.4899 139.5,25.5C 138.851,27.6241 138.017,29.6241 137,31.5C 136.906,27.1256 137.406,22.7923 138.5,18.5 Z"/></g>
<g><path style="opacity:1" fill="#82a7d1" d="M 127.5,22.5 C 126.833,25.1667 126.167,27.8333 125.5,30.5C 125.183,27.4281 125.516,24.4281 126.5,21.5C 127.107,21.6236 127.44,21.9569 127.5,22.5 Z"/></g>
<g><path style="opacity:1" fill="#e2e9f4" d="M 160.5,23.5 C 161.043,23.56 161.376,23.8933 161.5,24.5C 160.926,26.0589 160.26,27.5589 159.5,29C 161.95,27.7934 164.617,27.1267 167.5,27C 166.335,28.0836 165.002,28.9169 163.5,29.5C 163.047,32.5182 162.713,35.5182 162.5,38.5C 161.5,35.8333 160.5,33.1667 159.5,30.5C 158.643,31.7357 157.977,33.069 157.5,34.5C 156.998,35.521 156.332,35.6877 155.5,35C 157.267,31.1958 158.933,27.3625 160.5,23.5 Z"/></g>
<g><path style="opacity:1" fill="#f38332" d="M 87.5,28.5 C 93.2147,34.2365 97.7147,40.9032 101,48.5C 104.091,59.0068 102.424,68.6735 96,77.5C 90.3333,83.8333 84.6667,90.1667 79,96.5C 69.5063,108.269 69.0063,120.436 77.5,133C 68.0086,128.165 61.1752,120.665 57,110.5C 56.3333,106.5 56.3333,102.5 57,98.5C 62.7799,88.041 70.1132,78.7077 79,70.5C 85.8886,62.9464 90.0553,54.1131 91.5,44C 91.2392,38.5193 89.9059,33.3526 87.5,28.5 Z"/></g>
<g><path style="opacity:1" fill="#e2e9f4" d="M 177.5,32.5 C 178.497,32.4701 179.164,32.9701 179.5,34C 178.578,37.9711 177.412,41.8045 176,45.5C 175.405,44.1011 175.572,42.7678 176.5,41.5C 175.653,40.1552 174.487,39.1552 173,38.5C 171.511,40.3318 169.678,41.1652 167.5,41C 171.025,38.302 174.358,35.4686 177.5,32.5 Z"/></g>
<g><path style="opacity:1" fill="#3b71b5" d="M 176.5,34.5 C 177.522,35.8917 177.189,37.225 175.5,38.5C 175.167,38.1667 174.833,37.8333 174.5,37.5C 175.193,36.4822 175.859,35.4822 176.5,34.5 Z"/></g>
<g><path style="opacity:1" fill="#e5ebf4" d="M 180.5,43.5 C 179.566,44.5676 179.232,45.901 179.5,47.5C 178.078,40.417 181.078,37.2504 188.5,38C 190.616,39.1707 191.282,40.6707 190.5,42.5C 186.699,37.2023 183.365,37.5357 180.5,43.5 Z"/></g>
<g><path style="opacity:1" fill="#e5ebf5" d="M 55.5,41.5 C 55.56,40.9569 55.8933,40.6236 56.5,40.5C 57.7946,41.0983 59.1279,41.5983 60.5,42C 60.1667,42.3333 59.8333,42.6667 59.5,43C 61.2112,44.1332 61.7112,45.6332 61,47.5C 58.932,45.6038 57.0987,43.6038 55.5,41.5 Z"/></g>
<g><path style="opacity:1" fill="#e4eaf4" d="M 68.5,31.5 C 69.4959,31.4142 70.3292,31.7476 71,32.5C 72.6768,35.8534 74.8434,38.8534 77.5,41.5C 74.672,43.7481 71.672,45.7481 68.5,47.5C 68.2514,46.4179 68.0848,45.0846 68,43.5C 66.9783,42.646 66.1449,41.646 65.5,40.5C 66.0016,39.479 66.6683,39.3123 67.5,40C 68.3041,41.7713 69.4708,43.2713 71,44.5C 71.0442,42.2403 70.2108,40.2403 68.5,38.5C 69.0016,37.479 69.6683,37.3123 70.5,38C 71.3041,39.7713 72.4708,41.2713 74,42.5C 73.2322,38.9846 71.3989,35.9846 68.5,33.5C 66.2011,34.6351 64.0344,35.9684 62,37.5C 61.8333,37.1667 61.6667,36.8333 61.5,36.5C 63.7243,34.566 66.0576,32.8994 68.5,31.5 Z"/></g>
<g><path style="opacity:1" fill="#e7edf6" d="M 56.5,50.5 C 55.3409,52.3769 53.6742,52.8769 51.5,52C 50.9389,50.324 49.9389,48.9906 48.5,48C 50.1671,45.8298 52.1671,43.9965 54.5,42.5C 56.0413,44.204 57.3746,46.0374 58.5,48C 58.3613,49.301 57.6946,50.1344 56.5,50.5 Z"/></g>
<g><path style="opacity:1" fill="#9ab6d9" d="M 180.5,43.5 C 180.281,47.2685 181.947,49.6018 185.5,50.5C 185.5,51.1667 185.167,51.5 184.5,51.5C 181.796,51.3304 180.129,49.9971 179.5,47.5C 179.232,45.901 179.566,44.5676 180.5,43.5 Z"/></g>
<g><path style="opacity:1" fill="#e3e9f4" d="M 184.5,51.5 C 185.167,51.5 185.5,51.1667 185.5,50.5C 188.589,49.2611 191.589,47.7611 194.5,46C 195.5,45.3333 196.5,45.3333 197.5,46C 195.704,49.7598 194.038,53.5931 192.5,57.5C 191.833,58.8333 191.167,58.8333 190.5,57.5C 192.8,55.1717 192.8,53.005 190.5,51C 188.744,50.8595 187.078,51.3595 185.5,52.5C 184.893,52.3764 184.56,52.0431 184.5,51.5 Z"/></g>
<g><path style="opacity:1" fill="#296cb1" d="M 56.5,50.5 C 52.8622,51.2634 51.3622,49.9301 52,46.5C 55.6693,44.9907 57.1693,46.3241 56.5,50.5 Z"/></g>
<g><path style="opacity:1" fill="#2968b0" d="M 193.5,47.5 C 194.465,48.7211 194.298,50.0544 193,51.5C 191.413,50.154 191.58,48.8206 193.5,47.5 Z"/></g>
<g><path style="opacity:1" fill="#e1e7f3" d="M 62.5,47.5 C 67.5423,51.1268 67.5423,51.7935 62.5,49.5C 60.6841,50.8149 59.0175,52.3149 57.5,54C 56.8333,54.6667 56.1667,54.6667 55.5,54C 57.7293,51.5997 60.0626,49.433 62.5,47.5 Z"/></g>
<g><path style="opacity:1" fill="#dce4f1" d="M 195.5,62.5 C 194.373,61.8783 193.373,61.045 192.5,60C 195.832,56.536 199.499,53.8694 203.5,52C 209.582,58.4945 208.248,62.9945 199.5,65.5C 197.583,65.2462 196.249,64.2462 195.5,62.5 Z"/></g>
<g><path style="opacity:1" fill="#226ab0" d="M 195.5,62.5 C 195.586,61.5041 195.252,60.6708 194.5,60C 197.02,58.2368 199.353,56.2368 201.5,54C 202.996,53.4926 204.163,53.9926 205,55.5C 205.275,62.2913 202.109,64.6247 195.5,62.5 Z"/></g>
<g><path style="opacity:1" fill="#3874b6" d="M 48.5,54.5 C 47.9202,56.7488 46.5869,58.4154 44.5,59.5C 45.0798,57.2512 46.4131,55.5846 48.5,54.5 Z"/></g>
<g><path style="opacity:1" fill="#d6e0ef" d="M 48.5,54.5 C 46.4131,55.5846 45.0798,57.2512 44.5,59.5C 43.2058,60.2899 42.0391,61.2899 41,62.5C 39.8333,61.3333 38.6667,60.1667 37.5,59C 40.1176,56.2605 42.6176,53.4272 45,50.5C 43.8868,53.1808 42.3868,55.8474 40.5,58.5C 40.8333,58.8333 41.1667,59.1667 41.5,59.5C 43.0404,57.6132 44.7071,55.7799 46.5,54C 47.4368,53.3083 48.1034,53.475 48.5,54.5 Z"/></g>
<g><path style="opacity:1" fill="#a6bedd" d="M 48.5,54.5 C 49.2389,54.369 49.9056,54.5357 50.5,55C 49.695,56.1127 49.0283,57.2794 48.5,58.5C 49.5,59.1667 50.5,59.8333 51.5,60.5C 50.0413,60.4326 48.7079,60.7659 47.5,61.5C 46.4929,61.4524 46.1596,62.4524 46.5,64.5C 45.7784,64.0825 45.2784,63.4158 45,62.5C 44.1627,64.0074 42.9961,64.5074 41.5,64C 43.1412,62.871 44.1412,61.371 44.5,59.5C 46.5869,58.4154 47.9202,56.7488 48.5,54.5 Z"/></g>
<g><path style="opacity:1" fill="#e7ecf5" d="M 48.5,58.5 C 53.0685,58.0826 54.5685,60.0826 53,64.5C 50.7067,67.1339 48.54,67.1339 46.5,64.5C 46.1596,62.4524 46.4929,61.4524 47.5,61.5C 47.5,62.5 47.5,63.5 47.5,64.5C 51.5172,65.1614 52.8505,63.8281 51.5,60.5C 50.5,59.8333 49.5,59.1667 48.5,58.5 Z"/></g>
<g><path style="opacity:1" fill="#2068af" d="M 51.5,60.5 C 52.8505,63.8281 51.5172,65.1614 47.5,64.5C 47.5,63.5 47.5,62.5 47.5,61.5C 48.7079,60.7659 50.0413,60.4326 51.5,60.5 Z"/></g>
<g><path style="opacity:1" fill="#e2e9f3" d="M 209.5,61.5 C 211.682,62.2997 213.349,63.7997 214.5,66C 212.671,65.5977 211.004,64.9311 209.5,64C 207.027,65.4019 207.027,66.9019 209.5,68.5C 207.675,69.5709 206.508,68.9042 206,66.5C 204.926,67.6184 203.76,68.6184 202.5,69.5C 203.167,70.5 203.833,71.5 204.5,72.5C 204.167,72.8333 203.833,73.1667 203.5,73.5C 202.5,72.1667 201.5,70.8333 200.5,69.5C 203.52,66.811 206.52,64.1444 209.5,61.5 Z"/></g>
<g><path style="opacity:1" fill="#e7ecf5" d="M 34.5,64.5 C 38.3767,66.8725 42.3767,69.0392 46.5,71C 44.4569,74.2534 42.2902,77.4201 40,80.5C 40,79.1667 40,77.8333 40,76.5C 38.414,75.624 36.914,74.624 35.5,73.5C 37.6841,72.8919 39.6841,73.5586 41.5,75.5C 43.2701,74.1804 43.6034,72.6804 42.5,71C 39.7513,69.8773 37.2513,68.3773 35,66.5C 33.5787,69.0094 31.9121,71.3428 30,73.5C 30.9127,70.3409 32.4127,67.3409 34.5,64.5 Z"/></g>
<g><path style="opacity:1" fill="#1b69af" d="M 119.5,72.5 C 143.666,71.9231 167.666,73.5898 191.5,77.5C 191.5,80.5 191.5,83.5 191.5,86.5C 174.094,84.038 156.594,82.3714 139,81.5C 130.099,81.6728 121.266,82.5061 112.5,84C 111.549,84.7175 111.383,85.5509 112,86.5C 123.527,96.1777 125.527,107.511 118,120.5C 111.039,129.13 103.705,137.463 96,145.5C 90.9429,151.612 88.1095,158.612 87.5,166.5C 87.8838,171.671 88.7171,176.671 90,181.5C 81.8422,173.35 77.0089,163.517 75.5,152C 76.3606,143.782 79.5273,136.615 85,130.5C 94.2816,122.231 101.615,112.564 107,101.5C 108.708,92.2937 106.542,84.127 100.5,77C 106.753,74.8515 113.087,73.3515 119.5,72.5 Z"/></g>
<g><path style="opacity:1" fill="#eaeff7" d="M 25.5,78.5 C 27.7567,78.9617 29.7567,79.9617 31.5,81.5C 30.7261,82.7112 29.8928,82.7112 29,81.5C 28.3333,82.1667 27.6667,82.8333 27,83.5C 26.3923,81.8455 25.8923,80.1789 25.5,78.5 Z"/></g>
<g><path style="opacity:1" fill="#e2e9f4" d="M 215.5,82.5 C 216.043,82.44 216.376,82.1067 216.5,81.5C 213.694,80.8324 211.028,80.1657 208.5,79.5C 214.281,72.75 213.281,71.75 205.5,76.5C 205.167,76.1667 204.833,75.8333 204.5,75.5C 208.722,73.3744 213.056,71.8744 217.5,71C 215.38,73.4087 213.38,75.9087 211.5,78.5C 214.785,79.3236 218.118,79.8236 221.5,80C 218.132,82.8453 214.466,84.8453 210.5,86C 211.846,84.3308 213.513,83.1642 215.5,82.5 Z"/></g>
<g><path style="opacity:1" fill="#86a9d2" d="M 208.5,79.5 C 211.028,80.1657 213.694,80.8324 216.5,81.5C 216.376,82.1067 216.043,82.44 215.5,82.5C 212.972,81.8343 210.306,81.1676 207.5,80.5C 207.624,79.8933 207.957,79.56 208.5,79.5 Z"/></g>
<g><path style="opacity:1" fill="#e4eaf4" d="M 28.5,83.5 C 29.0431,83.56 29.3764,83.8933 29.5,84.5C 28.7366,85.7193 27.7366,86.7193 26.5,87.5C 27.4847,89.0983 27.6514,90.765 27,92.5C 26.2178,89.9242 24.7178,87.9242 22.5,86.5C 24.8839,85.9892 26.8839,84.9892 28.5,83.5 Z"/></g>
<g><path style="opacity:1" fill="#eaeff7" d="M 222.5,82.5 C 223.043,82.56 223.376,82.8933 223.5,83.5C 222.167,85.1667 220.833,86.8333 219.5,88.5C 221.423,89.3078 223.423,89.8078 225.5,90C 221.126,90.5388 216.792,90.8721 212.5,91C 216.589,89.079 219.923,86.2457 222.5,82.5 Z"/></g>
<g><path style="opacity:1" fill="#dfe6f2" d="M 33.5,87.5 C 32.4415,88.6002 31.6082,89.9336 31,91.5C 30.8559,87.7679 32.0226,84.4345 34.5,81.5C 35.8805,81.9996 36.5472,82.9996 36.5,84.5C 35.6491,86.8535 35.1491,89.1868 35,91.5C 36.3333,88.8333 37.6667,86.1667 39,83.5C 38.8098,86.5851 37.9765,89.5851 36.5,92.5C 35.3493,93.731 34.1827,93.731 33,92.5C 33.0187,90.8925 33.1854,89.2259 33.5,87.5 Z"/></g>
<g><path style="opacity:1" fill="#3f7ab9" d="M 33.5,87.5 C 33.3118,85.8967 33.8118,84.5634 35,83.5C 35.3478,85.1398 34.8478,86.4732 33.5,87.5 Z"/></g>
<g><path style="opacity:1" fill="#98b6d9" d="M 174.5,89.5 C 175.404,90.209 175.737,91.209 175.5,92.5C 172.941,92.8016 170.607,92.4682 168.5,91.5C 171.082,91.9746 173.082,91.3079 174.5,89.5 Z"/></g>
<g><path style="opacity:1" fill="#3d75b7" d="M 174.5,89.5 C 173.082,91.3079 171.082,91.9746 168.5,91.5C 166.952,91.8212 166.285,92.8212 166.5,94.5C 168.833,94.5 171.167,94.5 173.5,94.5C 173.5,95.5 173.5,96.5 173.5,97.5C 171.167,97.5 168.833,97.5 166.5,97.5C 166.5,98.8333 166.5,100.167 166.5,101.5C 165.167,101.5 163.833,101.5 162.5,101.5C 162.833,97.5 163.167,93.5 163.5,89.5C 167.167,89.5 170.833,89.5 174.5,89.5 Z"/></g>
<g><path style="opacity:1" fill="#dae3f0" d="M 20.5,95.5 C 22.2646,94.5386 24.2646,94.2053 26.5,94.5C 26.4385,98.7458 25.4385,102.746 23.5,106.5C 21.7749,105.985 20.1083,105.318 18.5,104.5C 20.956,101.699 21.6227,98.6993 20.5,95.5 Z"/></g>
<g><path style="opacity:1" fill="#2b6db2" d="M 151.5,88.5 C 153.167,88.5 154.833,88.5 156.5,88.5C 157.624,92.5388 158.957,96.5388 160.5,100.5C 159.349,101.731 158.183,101.731 157,100.5C 156.311,97.5919 155.145,94.9252 153.5,92.5C 152.171,95.1578 150.838,97.8244 149.5,100.5C 148.675,101.386 147.675,101.719 146.5,101.5C 147.885,97.062 149.552,92.7287 151.5,88.5 Z"/></g>
<g><path style="opacity:1" fill="#e5ebf5" d="M 227.5,99.5 C 230.312,102.839 229.979,106.005 226.5,109C 217.01,110.855 214.344,107.522 218.5,99C 221.813,96.8594 224.813,97.0261 227.5,99.5 Z"/></g>
<g><path style="opacity:1" fill="#2e69b0" d="M 23.5,96.5 C 24.7645,98.7721 24.5978,101.105 23,103.5C 22.2967,101.071 22.4634,98.7375 23.5,96.5 Z"/></g>
<g><path style="opacity:1" fill="#246cb1" d="M 227.5,99.5 C 229.664,104.85 227.831,107.85 222,108.5C 216.672,106.674 216.172,103.84 220.5,100C 222.81,99.5034 225.143,99.3367 227.5,99.5 Z"/></g>
<g><path style="opacity:1" fill="#1d69b0" d="M 131.5,88.5 C 132.5,88.5 133.5,88.5 134.5,88.5C 134.5,90.1667 134.5,91.8333 134.5,93.5C 136.5,93.5 138.5,93.5 140.5,93.5C 140.5,91.8333 140.5,90.1667 140.5,88.5C 141.5,88.5 142.5,88.5 143.5,88.5C 143.5,92.8333 143.5,97.1667 143.5,101.5C 142.5,101.5 141.5,101.5 140.5,101.5C 140.5,99.5 140.5,97.5 140.5,95.5C 138.5,95.5 136.5,95.5 134.5,95.5C 134.5,97.5 134.5,99.5 134.5,101.5C 133.5,101.5 132.5,101.5 131.5,101.5C 131.5,97.1667 131.5,92.8333 131.5,88.5 Z"/></g>
<g><path style="opacity:1" fill="#306fb3" d="M 178.5,90.5 C 182.192,89.9712 185.358,90.9712 188,93.5C 188.591,94.4835 188.257,95.1501 187,95.5C 185.026,93.628 182.859,93.2947 180.5,94.5C 182.003,96.4216 184.003,97.5883 186.5,98C 189.361,102.35 188.028,104.517 182.5,104.5C 179.202,104.87 176.868,103.537 175.5,100.5C 177.562,99.2391 179.228,99.7391 180.5,102C 181.793,102.49 183.127,102.657 184.5,102.5C 184.5,101.5 184.5,100.5 184.5,99.5C 181.735,99.2024 179.235,98.2024 177,96.5C 176.252,94.1599 176.752,92.1599 178.5,90.5 Z"/></g>
<g><path style="opacity:1" fill="#d9e2f0" d="M 28.5,95.5 C 29.0135,98.5827 30.6802,100.916 33.5,102.5C 32.2243,103.645 30.891,103.645 29.5,102.5C 28.5726,104.113 27.7393,105.779 27,107.5C 26.8437,103.445 27.3437,99.4452 28.5,95.5 Z"/></g>
<g><path style="opacity:1" fill="#1d69b0" d="M 137.5,107.5 C 154.956,107.329 172.29,108.663 189.5,111.5C 185.034,158.267 162.701,193.6 122.5,217.5C 112.859,212.359 105.359,205.026 100,195.5C 97.7899,188.693 98.1232,182.027 101,175.5C 107.917,165.912 115.584,156.912 124,148.5C 129.523,141.621 132.689,133.787 133.5,125C 132.88,119.311 131.547,113.811 129.5,108.5C 132.385,108.806 135.052,108.473 137.5,107.5 Z"/></g>
<g><path style="opacity:1" fill="#dbe4f1" d="M 16.5,110.5 C 21.1408,111.127 25.8075,111.46 30.5,111.5C 30.6076,115.247 30.1076,118.914 29,122.5C 26.7988,121.004 24.2988,120.004 21.5,119.5C 23.8333,118.833 26.1667,118.167 28.5,117.5C 20.5762,116.038 20.5762,114.871 28.5,114C 25.1832,113.502 21.8499,113.335 18.5,113.5C 18.3215,116.216 17.8215,118.883 17,121.5C 16.5014,117.848 16.3347,114.182 16.5,110.5 Z"/></g>
<g><path style="opacity:1" fill="#d2deee" d="M 228.5,111.5 C 229.5,111.5 230.5,111.5 231.5,111.5C 231.808,113.924 231.474,116.257 230.5,118.5C 229.548,116.955 229.215,115.288 229.5,113.5C 228.167,113.5 226.833,113.5 225.5,113.5C 225.378,117.838 225.045,118.172 224.5,114.5C 222.076,114.808 219.743,114.474 217.5,113.5C 221.313,112.833 224.979,112.166 228.5,111.5 Z"/></g>
<g><path style="opacity:1" fill="#fbfcfd" d="M 136.5,117.5 C 149.889,117.235 163.222,117.902 176.5,119.5C 172.838,146.819 161.671,170.486 143,190.5C 135.493,198.653 127.327,205.987 118.5,212.5C 111.415,201.176 111.915,190.176 120,179.5C 126,172.833 132,166.167 138,159.5C 143.773,151.738 145.773,143.071 144,133.5C 141.745,127.994 139.245,122.66 136.5,117.5 Z"/></g>
<g><path style="opacity:1" fill="#f6f8fb" d="M 218.5,126.5 C 222.634,125.515 226.968,125.182 231.5,125.5C 231.662,127.527 231.495,129.527 231,131.5C 230.506,129.866 230.34,128.199 230.5,126.5C 229.167,126.5 227.833,126.5 226.5,126.5C 225.833,131.833 225.167,131.833 224.5,126.5C 222.5,126.5 220.5,126.5 218.5,126.5 Z"/></g>
<g><path style="opacity:1" fill="#c5d3e9" d="M 25.5,125.5 C 27.288,125.215 28.9547,125.548 30.5,126.5C 29.675,127.386 28.675,127.719 27.5,127.5C 27.8134,130.247 27.48,132.914 26.5,135.5C 25.513,132.232 25.1796,128.898 25.5,125.5 Z"/></g>
<g><path style="opacity:1" fill="#d9e2f0" d="M 18.5,124.5 C 20.5891,124.857 22.5891,125.523 24.5,126.5C 22.1378,127.271 19.8045,128.105 17.5,129C 24.1438,128.303 26.1438,130.969 23.5,137C 21.444,137.311 19.444,137.811 17.5,138.5C 16.6816,136.892 16.0149,135.225 15.5,133.5C 16.8333,131.5 16.8333,129.5 15.5,127.5C 16.9935,126.859 17.9935,125.859 18.5,124.5 Z"/></g>
<g><path style="opacity:1" fill="#3572b5" d="M 19.5,130.5 C 22.9103,130.384 24.2436,132.05 23.5,135.5C 21.8333,135.5 20.1667,135.5 18.5,135.5C 18.366,133.708 18.6993,132.042 19.5,130.5 Z"/></g>
<g><path style="opacity:1" fill="#d9e2f0" d="M 220.5,132.5 C 224.803,131.796 228.303,133.13 231,136.5C 231.716,141.792 229.383,144.792 224,145.5C 216.885,142.826 215.718,138.492 220.5,132.5 Z"/></g>
<g><path style="opacity:1" fill="#1e69b0" d="M 220.5,134.5 C 223.32,134.248 225.986,134.748 228.5,136C 229.576,137.726 229.743,139.559 229,141.5C 226.263,142.61 223.429,142.777 220.5,142C 217.914,139.506 217.914,137.006 220.5,134.5 Z"/></g>
<g><path style="opacity:1" fill="#d9e3f0" d="M 215.5,146.5 C 220.073,147.06 224.406,148.393 228.5,150.5C 226.673,157.451 223.673,158.117 219.5,152.5C 217.588,154.156 215.588,154.489 213.5,153.5C 215.667,152.052 218,150.885 220.5,150C 218.24,149.451 216.574,148.284 215.5,146.5 Z"/></g>
<g><path style="opacity:1" fill="#276bb1" d="M 222.5,150.5 C 223.833,150.5 225.167,150.5 226.5,150.5C 226.778,152.346 226.111,153.68 224.5,154.5C 222.889,153.68 222.222,152.346 222.5,150.5 Z"/></g>
<g><path style="opacity:1" fill="#e3eaf4" d="M 26.5,139.5 C 28.288,139.215 29.9547,139.548 31.5,140.5C 28.4544,141.375 25.4544,142.375 22.5,143.5C 25.5329,144.338 28.5329,144.004 31.5,142.5C 31.8333,142.833 32.1667,143.167 32.5,143.5C 31.3112,144.429 29.9778,144.762 28.5,144.5C 28.8333,147.167 29.1667,149.833 29.5,152.5C 26.2107,153.374 22.8774,154.041 19.5,154.5C 18.7691,152.401 18.7691,150.401 19.5,148.5C 20.1667,149.833 20.8333,151.167 21.5,152.5C 23.4086,151.652 25.4086,151.318 27.5,151.5C 27.7394,149.533 27.4061,147.699 26.5,146C 23.949,145.977 21.449,146.477 19,147.5C 18.6886,146.258 19.1886,145.258 20.5,144.5C 19.5,143.833 18.5,143.167 17.5,142.5C 20.723,141.814 23.723,140.814 26.5,139.5 Z"/></g>
<g><path style="opacity:1" fill="#e2e9f4" d="M 33.5,153.5 C 34.3764,153.369 35.0431,153.702 35.5,154.5C 32.755,156.175 30.0883,157.842 27.5,159.5C 32.0773,160.908 33.5773,163.908 32,168.5C 27.3887,170.719 24.5554,169.385 23.5,164.5C 23.722,162.945 24.3887,161.611 25.5,160.5C 24.1667,160.167 22.8333,159.833 21.5,159.5C 25.5608,157.47 29.5608,155.47 33.5,153.5 Z"/></g>
<g><path style="opacity:1" fill="#e4eaf4" d="M 212.5,156.5 C 217.041,157.285 221.041,159.119 224.5,162C 224.122,163.635 223.456,165.135 222.5,166.5C 221.548,165.467 221.548,164.3 222.5,163C 220.636,159.654 218.969,159.821 217.5,163.5C 216.709,162.934 216.709,162.101 217.5,161C 214.73,157.532 212.73,158.032 211.5,162.5C 210.911,160.519 211.245,158.519 212.5,156.5 Z"/></g>
<g><path style="opacity:1" fill="#3070b4" d="M 26.5,162.5 C 31.5867,162.284 32.5867,164.118 29.5,168C 25.5369,168.118 24.5369,166.284 26.5,162.5 Z"/></g>
<g><path style="opacity:1" fill="#dee6f2" d="M 209.5,164.5 C 213.482,166.491 217.482,168.491 221.5,170.5C 220.635,171.583 219.635,171.749 218.5,171C 215.833,169.667 213.167,168.333 210.5,167C 209.748,166.329 209.414,165.496 209.5,164.5 Z"/></g>
<g><path style="opacity:1" fill="#d9e2f0" d="M 39.5,166.5 C 40.3764,166.369 41.0431,166.702 41.5,167.5C 40.5089,168.665 39.5089,169.832 38.5,171C 39.8274,173.453 40.6607,175.953 41,178.5C 40.1667,177.5 39.3333,176.5 38.5,175.5C 38.0981,177.634 38.0981,179.634 38.5,181.5C 36.9138,179.33 35.5804,176.996 34.5,174.5C 32.796,173.177 31.4627,173.51 30.5,175.5C 35.5303,185.304 35.0303,185.638 29,176.5C 28.6186,173.519 29.9519,171.519 33,170.5C 36.0398,174.543 37.2064,174.376 36.5,170C 37.5442,168.826 38.5442,167.659 39.5,166.5 Z"/></g>
<g><path style="opacity:1" fill="#dce4f1" d="M 207.5,169.5 C 215.666,169.466 218.499,173.132 216,180.5C 216.635,174.467 213.802,171.634 207.5,172C 204.741,174.574 205.074,176.74 208.5,178.5C 204.557,179.385 203.057,177.719 204,173.5C 205.376,172.295 206.542,170.962 207.5,169.5 Z"/></g>
<g><path style="opacity:1" fill="#e6ebf5" d="M 200.5,178.5 C 204.272,181.094 207.939,183.927 211.5,187C 207.5,187.333 203.5,187.667 199.5,188C 201.241,189.62 203.075,191.12 205,192.5C 205.667,193.167 205.667,193.833 205,194.5C 201.662,191.992 198.495,189.325 195.5,186.5C 199.122,185.675 202.789,185.175 206.5,185C 203.706,183.465 201.706,181.298 200.5,178.5 Z"/></g>
<g><path style="opacity:1" fill="#dce4f1" d="M 46.5,179.5 C 47.3764,179.369 48.0431,179.702 48.5,180.5C 47.1666,181.62 46.6666,182.953 47,184.5C 48.7146,186.759 50.5479,188.926 52.5,191C 51.0039,191.507 49.8373,191.007 49,189.5C 48.5,190 48,190.5 47.5,191C 48.6497,195.186 46.983,196.852 42.5,196C 39.0682,193.633 38.7348,190.966 41.5,188C 43.0349,187.504 44.5349,187.67 46,188.5C 47.623,186.826 47.123,185.493 44.5,184.5C 42.3211,185.757 40.3211,187.257 38.5,189C 37.6683,189.688 37.0016,189.521 36.5,188.5C 39.8533,185.478 43.1866,182.478 46.5,179.5 Z"/></g>
<g><path style="opacity:1" fill="#236ab0" d="M 42.5,189.5 C 46.1612,189.35 47.1612,190.85 45.5,194C 41.7071,194.487 40.7071,192.987 42.5,189.5 Z"/></g>
<g><path style="opacity:1" fill="#d5dfef" d="M 189.5,191.5 C 190.376,191.369 191.043,191.702 191.5,192.5C 189.02,193.415 188.353,194.915 189.5,197C 191.527,197.498 193.527,197.331 195.5,196.5C 198.975,197.143 200.141,199.143 199,202.5C 197.951,203.517 196.784,203.684 195.5,203C 197.107,201.951 197.773,200.451 197.5,198.5C 194.507,199.135 191.507,199.301 188.5,199C 187.083,196.257 187.416,193.757 189.5,191.5 Z"/></g>
<g><path style="opacity:1" fill="#dbe4f1" d="M 52.5,204.5 C 50.2712,203.945 48.6046,202.611 47.5,200.5C 48.8333,198.833 50.1667,197.167 51.5,195.5C 56.5,199.167 57.1667,198.5 53.5,193.5C 54.4803,192.019 55.647,190.685 57,189.5C 58.4371,191.221 57.9371,192.721 55.5,194C 57.709,196.378 60.0424,198.545 62.5,200.5C 62.1667,200.833 61.8333,201.167 61.5,201.5C 60.0452,199.056 58.3785,198.556 56.5,200C 57.9597,200.811 58.293,201.645 57.5,202.5C 55.8333,201.167 54.1667,199.833 52.5,198.5C 51.354,199.145 50.354,199.978 49.5,201C 50.7101,202.039 51.7101,203.206 52.5,204.5 Z"/></g>
<g><path style="opacity:1" fill="#d8e2f0" d="M 177.5,201.5 C 181.838,203.427 184.838,206.76 186.5,211.5C 186.154,212.696 185.654,212.696 185,211.5C 183.533,208.734 181.7,206.234 179.5,204C 176.875,203.277 175.208,204.277 174.5,207C 176.589,210.029 178.089,213.195 179,216.5C 175.097,213.369 173.431,209.369 174,204.5C 175.145,203.364 176.312,202.364 177.5,201.5 Z"/></g>
<g><path style="opacity:1" fill="#c4d4e9" d="M 52.5,204.5 C 54.1958,204.685 55.5291,205.519 56.5,207C 54.5878,207.279 53.2544,206.446 52.5,204.5 Z"/></g>
<g><path style="opacity:1" fill="#d3deee" d="M 183.5,197.5 C 186.334,199.502 188.667,202.002 190.5,205C 192.085,205.085 193.418,205.251 194.5,205.5C 192.54,207.156 190.54,208.823 188.5,210.5C 188.167,210.167 187.833,209.833 187.5,209.5C 189.04,208.468 189.54,207.135 189,205.5C 186.406,203.296 184.572,200.63 183.5,197.5 Z"/></g>
<g><path style="opacity:1" fill="#e0e8f3" d="M 78.5,207.5 C 82.2663,207.715 85.5997,209.049 88.5,211.5C 88.0234,212.931 87.3567,214.264 86.5,215.5C 85.9276,213.922 85.5943,212.422 85.5,211C 83.5497,209.504 81.5497,209.337 79.5,210.5C 78.3605,214.112 76.6939,217.446 74.5,220.5C 74.1667,220.167 73.8333,219.833 73.5,219.5C 75.1792,215.479 76.8459,211.479 78.5,207.5 Z"/></g>
<g><path style="opacity:1" fill="#dde5f2" d="M 72.5,209.5 C 72.6602,211.199 72.4935,212.866 72,214.5C 69.9419,215.109 69.1086,216.109 69.5,217.5C 66.6449,216.105 63.9782,214.438 61.5,212.5C 61.1667,211.667 60.8333,210.833 60.5,210C 63.0408,206.425 65.7075,202.925 68.5,199.5C 71.4495,201.115 74.1162,203.115 76.5,205.5C 75.5905,207.375 74.2572,208.708 72.5,209.5 Z"/></g>
<g><path style="opacity:1" fill="#2268b0" d="M 66.5,209.5 C 67.8333,209.5 69.1667,209.5 70.5,209.5C 70.5,211.167 70.5,212.833 70.5,214.5C 67.0897,214.616 65.7564,212.95 66.5,209.5 Z"/></g>
<g><path style="opacity:1" fill="#266bb1" d="M 72.5,209.5 C 71.085,208.711 69.585,208.044 68,207.5C 66.0378,208.861 64.2044,210.028 62.5,211C 64.5431,207.747 66.7098,204.58 69,201.5C 73.1934,202.926 74.3601,205.593 72.5,209.5 Z"/></g>
<g><path style="opacity:1" fill="#e1e8f3" d="M 167.5,207.5 C 168.822,207.33 169.989,207.663 171,208.5C 172.455,211.912 174.288,215.079 176.5,218C 167.331,223.832 163.164,221.332 164,210.5C 165.145,209.364 166.312,208.364 167.5,207.5 Z"/></g>
<g><path style="opacity:1" fill="#216ab0" d="M 168.5,208.5 C 170.85,211.349 172.85,214.515 174.5,218C 167.8,220.965 164.633,218.798 165,211.5C 166.145,210.364 167.312,209.364 168.5,208.5 Z"/></g>
<g><path style="opacity:1" fill="#e1e8f3" d="M 158.5,211.5 C 159.75,211.577 160.583,212.244 161,213.5C 162.843,217.015 163.843,220.682 164,224.5C 161.62,220.406 159.787,216.073 158.5,211.5 Z"/></g>
<g><path style="opacity:1" fill="#d4dfee" d="M 152.5,213.5 C 154.144,213.286 155.644,213.62 157,214.5C 158.068,217.871 159.235,221.204 160.5,224.5C 158.684,226.441 156.684,227.108 154.5,226.5C 156.756,225.579 157.756,223.912 157.5,221.5C 156.127,221.657 154.793,221.49 153.5,221C 156.039,219.901 156.705,218.234 155.5,216C 152.463,216.715 149.463,217.049 146.5,217C 144.87,220.062 145.87,221.729 149.5,222C 152.859,224.034 153.192,226.368 150.5,229C 149.056,229.781 147.723,229.614 146.5,228.5C 147.689,227.571 149.022,227.238 150.5,227.5C 150.567,224.234 148.901,222.734 145.5,223C 142.833,220.667 142.833,218.333 145.5,216C 148.191,215.844 150.524,215.011 152.5,213.5 Z"/></g>
<g><path style="opacity:1" fill="#dde5f2" d="M 83.5,216.5 C 84.6935,216.97 85.3601,217.97 85.5,219.5C 85.0194,224.382 82.6861,225.549 78.5,223C 76.512,217.511 78.1787,215.344 83.5,216.5 Z"/></g>
<g><path style="opacity:1" fill="#2f6eb3" d="M 83.5,216.5 C 85.1984,220.613 83.865,222.446 79.5,222C 78.1817,218.463 79.515,216.629 83.5,216.5 Z"/></g>
<g><path style="opacity:1" fill="#c8d6ea" d="M 92.5,227.5 C 88.5847,225.802 88.5847,223.802 92.5,221.5C 91.8333,220.833 91.1667,220.167 90.5,219.5C 91.7161,218.904 93.0494,218.737 94.5,219C 91.5071,215.811 92.1737,213.978 96.5,213.5C 101.002,213.294 102.835,215.294 102,219.5C 100.933,220.191 99.7659,220.691 98.5,221C 103.07,221.55 103.403,222.717 99.5,224.5C 100.652,227.543 99.4858,229.21 96,229.5C 94.3009,229.613 93.1342,228.947 92.5,227.5 Z"/></g>
<g><path style="opacity:1" fill="#1463ac" d="M 94.5,214.5 C 97.9694,213.887 99.9694,215.221 100.5,218.5C 96.7593,219.401 94.7593,218.068 94.5,214.5 Z"/></g>
<g><path style="opacity:1" fill="#276ab0" d="M 92.5,227.5 C 91.7659,226.292 91.4326,224.959 91.5,223.5C 93.5914,223.318 95.5914,223.652 97.5,224.5C 98.3857,225.325 98.719,226.325 98.5,227.5C 96.5,227.5 94.5,227.5 92.5,227.5 Z"/></g>
</svg>
