<?xml version="1.0" encoding="UTF-8"?>
<!DOCTYPE svg PUBLIC "-//W3C//DTD SVG 1.1//EN" "http://www.w3.org/Graphics/SVG/1.1/DTD/svg11.dtd">
<svg xmlns="http://www.w3.org/2000/svg" version="1.1" width="500px" height="500px" style="shape-rendering:geometricPrecision; text-rendering:geometricPrecision; image-rendering:optimizeQuality; fill-rule:evenodd; clip-rule:evenodd" xmlns:xlink="http://www.w3.org/1999/xlink">
<g><path style="opacity:1" fill="#fefefe" d="M -0.5,-0.5 C 76.1667,-0.5 152.833,-0.5 229.5,-0.5C 133.246,11.2688 63.7462,60.6021 21,147.5C 9.5681,174.196 2.40143,201.863 -0.5,230.5C -0.5,153.5 -0.5,76.5 -0.5,-0.5 Z"/></g>
<g><path style="opacity:1" fill="#80807f" d="M 229.5,-0.5 C 240.5,-0.5 251.5,-0.5 262.5,-0.5C 361.921,8.76753 433.754,58.1009 478,147.5C 489.114,173.916 496.281,201.249 499.5,229.5C 499.5,240.5 499.5,251.5 499.5,262.5C 492.044,350.611 451.044,418.111 376.5,465C 341.001,485.114 303.001,496.614 262.5,499.5C 251.5,499.5 240.5,499.5 229.5,499.5C 148.291,490.16 84.7908,451.826 39,384.5C 15.6475,347.076 2.48083,306.409 -0.5,262.5C -0.5,251.833 -0.5,241.167 -0.5,230.5C 2.40143,201.863 9.5681,174.196 21,147.5C 63.7462,60.6021 133.246,11.2688 229.5,-0.5 Z"/></g>
<g><path style="opacity:1" fill="#fefefe" d="M 262.5,-0.5 C 341.5,-0.5 420.5,-0.5 499.5,-0.5C 499.5,76.1667 499.5,152.833 499.5,229.5C 496.281,201.249 489.114,173.916 478,147.5C 433.754,58.1009 361.921,8.76753 262.5,-0.5 Z"/></g>
<g><path style="opacity:1" fill="#f9f9f9" d="M 227.5,5.5 C 314.628,1.16258 386.128,32.1626 442,98.5C 493.859,168.313 506.859,244.98 481,328.5C 453.01,403.823 401.177,454.99 325.5,482C 226.345,509.988 140.845,487.488 69,414.5C 11.7691,348.24 -6.89756,272.24 13,186.5C 40.1929,97.9738 98.0262,40.1405 186.5,13C 200.146,9.61678 213.812,7.11678 227.5,5.5 Z"/></g>
<g><path style="opacity:1" fill="#888888" d="M 235.5,12.5 C 317.353,10.5832 384.186,40.9166 436,103.5C 484.994,169.525 497.994,242.191 475,321.5C 444.897,406.467 386.063,459.634 298.5,481C 220.629,495.285 151.629,476.952 91.5,426C 26.5483,363.518 2.04825,287.684 18,198.5C 37.2908,122.052 82.4575,66.8853 153.5,33C 179.845,21.7471 207.178,14.9137 235.5,12.5 Z"/></g>
<g><path style="opacity:1" fill="#fdfdfd" d="M 227.5,15.5 C 328.173,11.2412 404.34,51.9079 456,137.5C 484.15,191.45 491.15,248.117 477,307.5C 453.761,388.405 402.595,443.238 323.5,472C 241.843,496.562 167.509,482.895 100.5,431C 32.1433,370.615 4.97668,295.115 19,204.5C 40.957,112.211 97.1236,51.7107 187.5,23C 200.796,19.5092 214.129,17.0092 227.5,15.5 Z"/></g>
<g><path style="opacity:1" fill="#858584" d="M 185.5,36.5 C 187.57,36.5827 187.903,37.5827 186.5,39.5C 189.287,47.4076 191.787,55.4076 194,63.5C 195.098,64.9675 196.598,65.8008 198.5,66C 195.832,66.567 193.166,67.067 190.5,67.5C 188.93,58.2829 186.43,49.2829 183,40.5C 181.933,39.8095 180.766,39.3095 179.5,39C 181.502,37.9808 183.502,37.1475 185.5,36.5 Z"/></g>
<g><path style="opacity:1" fill="#858584" d="M 226.5,27.5 C 228.527,27.3379 230.527,27.5045 232.5,28C 230.667,28.5 229.5,29.6667 229,31.5C 226.743,41.6039 224.077,51.6039 221,61.5C 215.167,51.8333 209.333,42.1667 203.5,32.5C 205.045,31.5481 206.712,31.2148 208.5,31.5C 211.855,39.8759 216.022,47.8759 221,55.5C 223.156,46.8804 224.989,38.2137 226.5,29.5C 225.448,29.6495 224.448,29.4828 223.5,29C 224.737,28.7679 225.737,28.2679 226.5,27.5 Z"/></g>
<g><path style="opacity:1" fill="#868685" d="M 278.5,30.5 C 278.735,29.9033 279.235,29.5699 280,29.5C 284.151,30.3865 288.318,31.2198 292.5,32C 296.212,34.6019 297.378,38.1019 296,42.5C 294.357,44.9768 292.524,47.3102 290.5,49.5C 292.712,55.4323 296.045,60.599 300.5,65C 297.211,65.7464 294.711,64.5797 293,61.5C 291.151,57.8022 289.318,54.1356 287.5,50.5C 285.392,49.0562 283.059,48.3896 280.5,48.5C 279.576,52.7346 279.576,56.9012 280.5,61C 277.697,61.755 275.03,61.4217 272.5,60C 274.061,59.6824 275.228,58.8491 276,57.5C 277.778,49.3869 279.278,41.2202 280.5,33C 280.316,31.6244 279.649,30.7911 278.5,30.5 Z"/></g>
<g><path style="opacity:1" fill="#f4f4f4" d="M 283.5,32.5 C 291.275,31.4419 294.442,34.7752 293,42.5C 290.852,47.5032 287.185,48.8366 282,46.5C 282.164,41.8358 282.664,37.1692 283.5,32.5 Z"/></g>
<g><path style="opacity:1" fill="#898988" d="M 244.5,28.5 C 249.975,27.5111 255.642,27.1778 261.5,27.5C 261.785,29.288 261.452,30.9547 260.5,32.5C 259.713,31.7579 259.047,30.9246 258.5,30C 255.854,29.5026 253.187,29.3359 250.5,29.5C 250.5,33.5 250.5,37.5 250.5,41.5C 253.777,41.7839 256.943,41.4505 260,40.5C 260.667,42.5 260.667,44.5 260,46.5C 257.456,43.8992 254.29,42.8992 250.5,43.5C 250.334,47.8461 250.501,52.1794 251,56.5C 254.333,57.8333 257.667,57.8333 261,56.5C 261.483,57.448 261.649,58.448 261.5,59.5C 255.824,59.6661 250.157,59.4994 244.5,59C 245.333,58.1667 246.167,57.3333 247,56.5C 247.667,47.5 247.667,38.5 247,29.5C 246.329,28.7476 245.496,28.4142 244.5,28.5 Z"/></g>
<g><path style="opacity:1" fill="#878786" d="M 317.5,40.5 C 320.187,40.3359 322.854,40.5026 325.5,41C 330.125,41.5056 331.292,43.6722 329,47.5C 326.951,41.6403 323.284,40.307 318,43.5C 317.333,45.1667 317.333,46.8333 318,48.5C 321.089,52.5075 322.922,57.0075 323.5,62C 322.017,71.5733 317.017,73.9067 308.5,69C 306.016,66.7162 305.849,64.2162 308,61.5C 308.237,67.7027 311.404,70.2027 317.5,69C 320.29,66.7897 321.123,63.9563 320,60.5C 317.603,56.3768 315.77,52.0435 314.5,47.5C 314.695,44.7819 315.695,42.4486 317.5,40.5 Z"/></g>
<g><path style="opacity:1" fill="#858584" d="M 347.5,51.5 C 349.924,52.0305 352.257,52.8638 354.5,54C 352.075,54.2927 350.242,55.4593 349,57.5C 344.797,65.2407 341.13,73.2407 338,81.5C 335.913,80.2062 333.746,79.0395 331.5,78C 332.938,77.7811 334.271,77.2811 335.5,76.5C 340.279,68.474 344.279,60.1406 347.5,51.5 Z"/></g>
<g><path style="opacity:1" fill="#878786" d="M 159.5,45.5 C 160.5,45.5 161.5,45.5 162.5,45.5C 166.528,54.5583 170.861,63.5583 175.5,72.5C 174.277,73.6139 172.944,73.7805 171.5,73C 162.257,69.8893 153.09,66.3893 144,62.5C 143.5,62.8333 143,63.1667 142.5,63.5C 145.833,69.5 149.167,75.5 152.5,81.5C 153.729,82.2811 155.062,82.7811 156.5,83C 154.833,83.8333 153.167,84.6667 151.5,85.5C 146.397,75.9696 141.897,66.3029 138,56.5C 148.478,60.8832 159.145,64.8832 170,68.5C 167.634,60.6043 163.801,53.4376 158.5,47C 159.056,46.6174 159.389,46.1174 159.5,45.5 Z"/></g>
<g><path style="opacity:1" fill="#8a8a89" d="M 366.5,61.5 C 373.765,66.0942 380.765,71.0942 387.5,76.5C 386.469,77.7003 385.635,79.0337 385,80.5C 384.421,76.9089 382.588,74.0755 379.5,72C 378.365,71.2506 377.365,71.4173 376.5,72.5C 372,78.8333 367.5,85.1667 363,91.5C 362.798,93.2556 362.298,94.9223 361.5,96.5C 359.641,94.8076 357.641,93.3076 355.5,92C 358.196,91.3102 360.363,89.8102 362,87.5C 365.972,81.3621 370.138,75.3621 374.5,69.5C 371.681,66.0904 368.014,64.2571 363.5,64C 364.571,63.1482 365.571,62.3149 366.5,61.5 Z"/></g>
<g><path style="opacity:1" fill="#a3dbf8" d="M 234.5,74.5 C 311.624,72.3782 368.624,104.878 405.5,172C 397.345,173.84 390.845,171.34 386,164.5C 382.535,156.45 378.868,148.45 375,140.5C 367.056,129.274 356.223,122.774 342.5,121C 328.018,116.262 315.684,108.262 305.5,97C 294.27,89.8157 281.937,86.149 268.5,86C 251.298,86.3986 234.298,84.8986 217.5,81.5C 214.408,81.5069 211.408,82.0069 208.5,83C 195.509,90.7453 181.509,95.0786 166.5,96C 175.292,90.6057 184.625,86.2723 194.5,83C 207.767,79.178 221.1,76.3447 234.5,74.5 Z"/></g>
<g><path style="opacity:1" fill="#878786" d="M 120.5,67.5 C 121.239,67.369 121.906,67.5357 122.5,68C 121.483,69.0495 121.316,70.2161 122,71.5C 125.667,76.1667 129.333,80.8333 133,85.5C 136.578,91.6195 135.745,97.1195 130.5,102C 125.994,104.814 121.327,105.147 116.5,103C 111.833,97.6667 107.167,92.3333 102.5,87C 101.167,86.6667 99.8333,86.3333 98.5,86C 100.977,84.3573 103.31,82.524 105.5,80.5C 108.055,87.6632 112.389,94.1632 118.5,100C 126.524,103.736 131.524,101.403 133.5,93C 130.447,85.268 125.781,78.6013 119.5,73C 118.167,72.6667 116.833,72.3333 115.5,72C 117.618,70.9509 119.284,69.4509 120.5,67.5 Z"/></g>
<g><path style="opacity:1" fill="#898988" d="M 394.5,83.5 C 394.897,82.475 395.563,82.3083 396.5,83C 397.453,84.9552 398.787,86.6218 400.5,88C 397.693,92.3721 396.026,97.2054 395.5,102.5C 395.833,103.167 396.167,103.833 396.5,104.5C 400.784,103.179 405.117,102.012 409.5,101C 410.126,100.25 410.626,99.4162 411,98.5C 412.167,99.6667 413.333,100.833 414.5,102C 407.244,102.651 400.244,104.317 393.5,107C 391.333,109.167 389.167,111.333 387,113.5C 386.821,115.424 386.654,117.091 386.5,118.5C 384.96,116.613 383.293,114.78 381.5,113C 385.35,110.146 388.85,106.979 392,103.5C 392.794,99.4496 393.794,95.4496 395,91.5C 395.801,88.633 395.634,85.9664 394.5,83.5 Z"/></g>
<g><path style="opacity:1" fill="#888887" d="M 73.5,112.5 C 74.198,114.667 75.5313,116.5 77.5,118C 84.8855,122.353 91.8855,127.186 98.5,132.5C 87.178,134.807 75.8447,136.974 64.5,139C 71.03,144.098 78.03,148.431 85.5,152C 84.3289,155.638 82.9956,155.972 81.5,153C 73.2889,147.734 65.2889,142.234 57.5,136.5C 69.0767,133.985 80.7434,131.985 92.5,130.5C 86.8333,126.667 81.1667,122.833 75.5,119C 73.2992,118.175 71.4659,118.675 70,120.5C 70.8257,117.833 71.9924,115.166 73.5,112.5 Z"/></g>
<g><path style="opacity:1" fill="#8e8e8e" d="M 423.5,134.5 C 425.429,134.231 427.095,134.731 428.5,136C 426.567,136.251 424.734,136.751 423,137.5C 423.125,143.133 421.291,147.966 417.5,152C 412.344,152.539 409.01,150.206 407.5,145C 407.833,144.5 408.167,144 408.5,143.5C 409.33,148.18 411.996,150.347 416.5,150C 418.035,146.319 419.202,142.486 420,138.5C 421.376,137.295 422.542,135.962 423.5,134.5 Z"/></g>
<g><path style="opacity:1" fill="#dadada" d="M 117.5,297.5 C 109.143,291.641 102.31,284.308 97,275.5C 88.9916,261.98 82.8249,247.646 78.5,232.5C 78.1667,231.167 77.8333,229.833 77.5,228.5C 80.3928,198.549 90.7262,171.549 108.5,147.5C 110.383,152 110.883,156.667 110,161.5C 108.333,164.833 106.667,168.167 105,171.5C 95.5225,181.452 92.8558,193.118 97,206.5C 101.614,218.284 105.614,230.284 109,242.5C 108.551,253.513 107.884,264.513 107,275.5C 109.182,283.529 112.682,290.862 117.5,297.5 Z"/></g>
<g><path style="opacity:1" fill="#858584" d="M 437.5,154.5 C 438.922,154.75 439.922,155.583 440.5,157C 433.338,159.831 426.505,163.331 420,167.5C 419.5,166.5 419,165.5 418.5,164.5C 425.358,161.901 431.691,158.568 437.5,154.5 Z"/></g>
<g><path style="opacity:1" fill="#868685" d="M 48.5,154.5 C 49.2485,155.531 49.9152,156.698 50.5,158C 57.6651,161.721 64.9984,165.054 72.5,168C 74.1124,168.72 75.6124,168.554 77,167.5C 76.212,169.629 75.5453,171.962 75,174.5C 74.6667,174.833 74.3333,175.167 74,175.5C 73.6905,174.234 73.1905,173.067 72.5,172C 63.7861,168.262 55.1194,164.429 46.5,160.5C 47.3721,158.55 48.0388,156.55 48.5,154.5 Z"/></g>
<g><path style="opacity:1" fill="#91b2d5" d="M 183.5,182.5 C 191.984,181.507 200.651,181.174 209.5,181.5C 209.737,182.791 209.404,183.791 208.5,184.5C 200.567,182.532 192.234,181.865 183.5,182.5 Z"/></g>
<g><path style="opacity:1" fill="#a0bedb" d="M 238.5,182.5 C 231.087,181.872 224.087,182.539 217.5,184.5C 216.596,183.791 216.263,182.791 216.5,181.5C 224.019,181.175 231.352,181.508 238.5,182.5 Z"/></g>
<g><path style="opacity:1" fill="#1355a2" d="M 183.5,182.5 C 192.234,181.865 200.567,182.532 208.5,184.5C 205.956,184.104 203.789,184.771 202,186.5C 201.333,194.5 201.333,202.5 202,210.5C 208.667,203.167 215.333,195.833 222,188.5C 222.638,185.07 221.138,183.737 217.5,184.5C 224.087,182.539 231.087,181.872 238.5,182.5C 235.815,184.19 232.815,185.69 229.5,187C 223.122,193.043 217.122,199.376 211.5,206C 218.653,215.156 225.819,224.322 233,233.5C 234.995,235.747 237.495,236.747 240.5,236.5C 240.5,237.5 240.5,238.5 240.5,239.5C 234.824,239.666 229.157,239.499 223.5,239C 216.454,229.743 209.287,220.576 202,211.5C 201.333,219.167 201.333,226.833 202,234.5C 202.816,235.823 203.983,236.489 205.5,236.5C 206.263,237.268 207.263,237.768 208.5,238C 200.173,238.5 191.84,238.666 183.5,238.5C 185.203,236.859 187.37,235.859 190,235.5C 190.667,219.167 190.667,202.833 190,186.5C 187.575,185.357 185.408,184.024 183.5,182.5 Z"/></g>
<g><path style="opacity:1" fill="#1756a3" d="M 247.5,181.5 C 253.537,181.171 259.537,181.504 265.5,182.5C 271.593,196.348 277.926,210.015 284.5,223.5C 290.94,210.287 297.107,196.953 303,183.5C 309.111,182.191 315.278,182.191 321.5,183.5C 319.187,184.273 316.854,184.94 314.5,185.5C 313.907,201.871 314.74,218.204 317,234.5C 318.754,236.25 320.921,236.917 323.5,236.5C 323.5,237.5 323.5,238.5 323.5,239.5C 314.833,239.5 306.167,239.5 297.5,239.5C 297.5,238.5 297.5,237.5 297.5,236.5C 300.119,236.768 302.619,236.435 305,235.5C 305.054,221.814 304.388,208.147 303,194.5C 295.739,210.021 288.239,225.354 280.5,240.5C 273.273,225.707 266.273,210.707 259.5,195.5C 257.546,208.434 256.712,221.434 257,234.5C 259.135,236.278 261.635,236.945 264.5,236.5C 264.5,237.5 264.5,238.5 264.5,239.5C 257.5,239.5 250.5,239.5 243.5,239.5C 243.5,238.5 243.5,237.5 243.5,236.5C 247.808,237.265 250.642,235.598 252,231.5C 252.609,221.458 253.609,211.458 255,201.5C 255.667,196.833 255.667,192.167 255,187.5C 253.152,184.959 250.652,183.959 247.5,184.5C 247.5,183.5 247.5,182.5 247.5,181.5 Z"/></g>
<g><path style="opacity:1" fill="#1354a2" d="M 324.5,182.5 C 333.192,182.169 341.859,182.502 350.5,183.5C 347.855,184.192 345.355,185.192 343,186.5C 342.333,199.5 342.333,212.5 343,225.5C 346.948,235.223 354.114,238.723 364.5,236C 369.996,233.187 373.162,228.687 374,222.5C 374.667,210.833 374.667,199.167 374,187.5C 373.692,186.692 373.192,186.025 372.5,185.5C 370.465,184.959 368.465,184.292 366.5,183.5C 373.167,182.167 379.833,182.167 386.5,183.5C 384.083,184.072 381.916,185.072 380,186.5C 379.667,197.833 379.333,209.167 379,220.5C 378.403,230.21 373.569,236.71 364.5,240C 353.241,242.613 343.408,240.113 335,232.5C 333.25,229.754 332.25,226.754 332,223.5C 331.667,211.167 331.333,198.833 331,186.5C 328.575,185.357 326.408,184.024 324.5,182.5 Z"/></g>
<g><path style="opacity:1" fill="#96c341" d="M 420.5,221.5 C 416.313,241.055 406.647,257.222 391.5,270C 385.779,273.527 379.779,276.527 373.5,279C 369.538,281.14 366.204,283.973 363.5,287.5C 363.167,287.5 362.833,287.5 362.5,287.5C 362.128,276.112 365.794,266.279 373.5,258C 378.497,254.166 383.83,250.833 389.5,248C 399.798,238.246 406.632,226.412 410,212.5C 411.823,205.622 412.823,198.622 413,191.5C 416.745,201.145 419.245,211.145 420.5,221.5 Z"/></g>
<g><path style="opacity:1" fill="#888887" d="M 444.5,171.5 C 445.675,171.281 446.675,171.614 447.5,172.5C 443.247,179.337 439.247,186.337 435.5,193.5C 435.833,193.833 436.167,194.167 436.5,194.5C 440.494,193.001 444.494,191.501 448.5,190C 450.333,189.5 451.5,188.333 452,186.5C 452.781,187.944 452.614,189.277 451.5,190.5C 445.305,192.965 438.972,194.965 432.5,196.5C 435.308,188.92 438.975,181.753 443.5,175C 437.969,175.916 432.636,177.749 427.5,180.5C 426.692,180.192 426.025,179.692 425.5,179C 431.319,176.616 437.319,174.616 443.5,173C 444.056,172.617 444.389,172.117 444.5,171.5 Z"/></g>
<g><path style="opacity:1" fill="#868685" d="M 69.5,182.5 C 70.0612,185.04 69.3945,187.54 67.5,190C 60.1667,189.333 52.8333,188.667 45.5,188C 51.8333,193.167 58.1667,198.333 64.5,203.5C 56.3054,206.09 47.9721,208.257 39.5,210C 46.6857,212.795 54.0191,214.962 61.5,216.5C 61.762,217.978 61.4287,219.311 60.5,220.5C 51.9418,217.055 43.2751,213.888 34.5,211C 33.09,210.632 32.09,209.799 31.5,208.5C 40.8089,206.271 50.1422,204.105 59.5,202C 52.1667,196 44.8333,190 37.5,184C 45.9995,184.429 54.4995,185.263 63,186.5C 66.5339,187.225 68.7006,185.892 69.5,182.5 Z"/></g>
<g><path style="opacity:1" fill="#8a8a89" d="M 456.5,210.5 C 449.478,205.817 443.312,206.817 438,213.5C 437.333,216.833 437.333,220.167 438,223.5C 438.5,224.667 439.333,225.5 440.5,226C 439.216,226.684 438.049,226.517 437,225.5C 432.468,211.723 437.301,205.223 451.5,206C 454.115,206.612 455.781,208.112 456.5,210.5 Z"/></g>
<g><path style="opacity:1" fill="#a2a2a1" d="M 456.5,210.5 C 458.067,211.681 458.901,213.347 459,215.5C 459.497,218.146 459.664,220.813 459.5,223.5C 453.623,225.345 452.79,224.679 457,221.5C 457.579,217.797 457.412,214.131 456.5,210.5 Z"/></g>
<g><path style="opacity:1" fill="#09a470" d="M 420.5,221.5 C 425.461,254.533 421.461,286.533 408.5,317.5C 398.495,332.335 385.495,343.835 369.5,352C 355.651,358.091 341.651,358.924 327.5,354.5C 328.391,353.89 329.391,353.557 330.5,353.5C 350.433,349.731 361.6,337.731 364,317.5C 364.324,307.497 364.157,297.497 363.5,287.5C 366.204,283.973 369.538,281.14 373.5,279C 379.779,276.527 385.779,273.527 391.5,270C 406.647,257.222 416.313,241.055 420.5,221.5 Z"/></g>
<g><path style="opacity:1" fill="#fece44" d="M 78.5,232.5 C 82.8249,247.646 88.9916,261.98 97,275.5C 102.31,284.308 109.143,291.641 117.5,297.5C 119.607,299.727 121.94,301.727 124.5,303.5C 134.435,310.143 144.435,316.81 154.5,323.5C 161.194,332.36 167.694,341.36 174,350.5C 195.96,374.433 223.126,383.766 255.5,378.5C 253.041,384.957 249.375,390.623 244.5,395.5C 244.167,395.5 243.833,395.5 243.5,395.5C 179.104,401.553 130.937,376.553 99,320.5C 84.2533,292.856 77.42,263.523 78.5,232.5 Z"/></g>
<g><path style="opacity:1" fill="#5f8fc2" d="M 205.5,236.5 C 206.833,236.5 208.167,236.5 209.5,236.5C 209.5,237.5 209.5,238.5 209.5,239.5C 200.651,239.826 191.984,239.493 183.5,238.5C 191.84,238.666 200.173,238.5 208.5,238C 207.263,237.768 206.263,237.268 205.5,236.5 Z"/></g>
<g><path style="opacity:1" fill="#989897" d="M 460.5,234.5 C 461.485,238.634 461.818,242.968 461.5,247.5C 460.127,247.657 458.793,247.49 457.5,247C 459.229,245.211 459.896,243.044 459.5,240.5C 456.833,240.5 454.167,240.5 451.5,240.5C 451.5,242.833 451.5,245.167 451.5,247.5C 450.127,247.657 448.793,247.49 447.5,247C 449.25,245.246 449.917,243.079 449.5,240.5C 446.167,240.5 442.833,240.5 439.5,240.5C 439.232,243.119 439.565,245.619 440.5,248C 439.552,248.483 438.552,248.649 437.5,248.5C 437.334,244.486 437.501,240.486 438,236.5C 445.109,237.812 452.276,237.812 459.5,236.5C 459.863,235.817 460.196,235.15 460.5,234.5 Z"/></g>
<g><path style="opacity:1" fill="#16a571" d="M 77.5,228.5 C 77.8333,229.833 78.1667,231.167 78.5,232.5C 77.42,263.523 84.2533,292.856 99,320.5C 130.937,376.553 179.104,401.553 243.5,395.5C 235.14,404.347 224.807,409.513 212.5,411C 206.213,412.107 199.88,412.607 193.5,412.5C 142.509,394.344 107.009,360.011 87,309.5C 77.4899,283.095 74.3232,256.095 77.5,228.5 Z"/></g>
<g><path style="opacity:1" fill="#80807f" d="M 58.5,230.5 C 59.6129,231.946 59.7796,233.613 59,235.5C 54.5543,241.279 49.3877,246.446 43.5,251C 48.4889,251.499 53.4889,251.666 58.5,251.5C 59.694,249.022 59.8607,251.022 59,257.5C 58.6258,256.584 58.1258,255.75 57.5,255C 47.9223,254.182 38.4223,254.349 29,255.5C 28.3333,253.833 28.3333,252.167 29,250.5C 33.4132,251.632 37.9132,251.799 42.5,251C 38.8333,247.333 35.1667,243.667 31.5,240C 30.552,239.517 29.552,239.351 28.5,239.5C 28.3367,237.143 28.5034,234.81 29,232.5C 31.8842,238.72 36.2175,243.72 42,247.5C 49.0555,243.279 54.5555,237.612 58.5,230.5 Z"/></g>
<g><path style="opacity:1" fill="#838382" d="M 41.5,268.5 C 58.6512,267.812 65.4846,275.812 62,292.5C 57.0367,299.714 50.2034,302.214 41.5,300C 32.2124,295.243 29.0457,287.743 32,277.5C 34.2132,273.48 37.3799,270.48 41.5,268.5 Z"/></g>
<g><path style="opacity:1" fill="#fbfbfb" d="M 45.5,271.5 C 59.2666,271.094 64.0999,277.427 60,290.5C 52.9181,297.775 44.9181,299.108 36,294.5C 29.7634,282.971 32.93,275.305 45.5,271.5 Z"/></g>
<g><path style="opacity:1" fill="#fefefe" d="M -0.5,262.5 C 2.48083,306.409 15.6475,347.076 39,384.5C 84.7908,451.826 148.291,490.16 229.5,499.5C 152.833,499.5 76.1667,499.5 -0.5,499.5C -0.5,420.5 -0.5,341.5 -0.5,262.5 Z"/></g>
<g><path style="opacity:1" fill="#fefefe" d="M 499.5,262.5 C 499.5,341.5 499.5,420.5 499.5,499.5C 420.5,499.5 341.5,499.5 262.5,499.5C 303.001,496.614 341.001,485.114 376.5,465C 451.044,418.111 492.044,350.611 499.5,262.5 Z"/></g>
<g><path style="opacity:1" fill="#8b8b8a" d="M 436.5,272.5 C 437.224,274.218 437.891,276.052 438.5,278C 446.457,279.49 454.457,280.656 462.5,281.5C 462.302,279.425 462.135,277.425 462,275.5C 464.324,278.48 465.824,281.813 466.5,285.5C 457.627,284.492 448.793,283.159 440,281.5C 437.194,281.439 435.527,282.772 435,285.5C 435.056,281.151 435.556,276.817 436.5,272.5 Z"/></g>
<g><path style="opacity:1" fill="#0d53a0" d="M 362.5,287.5 C 362.833,287.5 363.167,287.5 363.5,287.5C 364.157,297.497 364.324,307.497 364,317.5C 361.6,337.731 350.433,349.731 330.5,353.5C 336.924,349.9 341.424,344.567 344,337.5C 345.989,325.231 348.989,313.231 353,301.5C 355.606,296.405 358.772,291.738 362.5,287.5 Z"/></g>
<g><path style="opacity:1" fill="#96c23e" d="M 124.5,303.5 C 136.886,310.294 150.219,313.794 164.5,314C 177.352,317.519 186.519,325.352 192,337.5C 205.76,352.638 222.594,357.472 242.5,352C 250.071,349.215 257.405,345.881 264.5,342C 277.271,337.197 289.937,337.53 302.5,343C 309.97,347.977 317.97,351.811 326.5,354.5C 322.354,355.647 318.02,355.814 313.5,355C 305.389,352.246 297.056,350.746 288.5,350.5C 271.168,351.492 260.501,360.492 256.5,377.5C 255.833,377.5 255.5,377.833 255.5,378.5C 223.126,383.766 195.96,374.433 174,350.5C 167.694,341.36 161.194,332.36 154.5,323.5C 144.435,316.81 134.435,310.143 124.5,303.5 Z"/></g>
<g><path style="opacity:1" fill="#888887" d="M 55.5,308.5 C 71.0699,309.32 77.2365,317.32 74,332.5C 65.6617,343.2 56.3284,344.2 46,335.5C 38.742,322.698 41.9086,313.698 55.5,308.5 Z"/></g>
<g><path style="opacity:1" fill="#868686" d="M 430.5,297.5 C 432.598,301.003 434.765,304.669 437,308.5C 442.781,314.66 449.614,316.494 457.5,314C 460.791,305.608 457.791,302.275 448.5,304C 446.641,305.558 445.141,307.391 444,309.5C 444.364,301.141 448.531,298.308 456.5,301C 463.217,307.044 462.884,312.711 455.5,318C 445.817,319.742 438.65,316.242 434,307.5C 432.132,304.395 430.965,301.062 430.5,297.5 Z"/></g>
<g><path style="opacity:1" fill="#fbfbfb" d="M 58.5,311.5 C 69.8479,311.684 74.3479,317.351 72,328.5C 65.4472,338.986 57.1139,340.986 47,334.5C 43.3403,328.284 43.8403,322.451 48.5,317C 51.7667,314.87 55.1,313.037 58.5,311.5 Z"/></g>
<g><path style="opacity:1" fill="#f29540" d="M 408.5,317.5 C 379.3,379.132 330.634,413.798 262.5,421.5C 249.815,421.655 237.149,421.322 224.5,420.5C 223.508,420.672 222.842,420.338 222.5,419.5C 245.13,418.035 262.13,407.702 273.5,388.5C 273.5,387.833 273.833,387.5 274.5,387.5C 290.355,381.303 304.689,372.637 317.5,361.5C 317.333,361.167 317.167,360.833 317,360.5C 305.219,368.138 292.386,373.138 278.5,375.5C 279.364,366.115 282.697,357.782 288.5,350.5C 297.056,350.746 305.389,352.246 313.5,355C 318.02,355.814 322.354,355.647 326.5,354.5C 326.833,354.5 327.167,354.5 327.5,354.5C 341.651,358.924 355.651,358.091 369.5,352C 385.495,343.835 398.495,332.335 408.5,317.5 Z"/></g>
<g><path style="opacity:1" fill="#888888" d="M 432.5,323.5 C 433.376,323.369 434.043,323.702 434.5,324.5C 438.372,332.411 442.372,340.245 446.5,348C 443.756,347.981 441.089,347.314 438.5,346C 435.205,343.769 431.705,341.936 428,340.5C 427.077,341.759 426.243,343.092 425.5,344.5C 424.692,344.192 424.025,343.692 423.5,343C 424.293,341.915 424.96,340.748 425.5,339.5C 423.19,337.517 420.523,336.517 417.5,336.5C 417.643,333.903 418.477,331.569 420,329.5C 420.814,333.01 422.981,335.344 426.5,336.5C 429.317,332.533 431.317,328.199 432.5,323.5 Z"/></g>
<g><path style="opacity:1" fill="#f4f4f4" d="M 433.5,327.5 C 436.432,332.072 439.099,336.905 441.5,342C 437.12,342.066 433.287,340.566 430,337.5C 430.644,334.072 431.81,330.739 433.5,327.5 Z"/></g>
<g><path style="opacity:1" fill="#888887" d="M 81.5,338.5 C 83.3332,340.022 84.3332,342.022 84.5,344.5C 82.8679,351.152 81.7013,357.819 81,364.5C 83.7482,362.542 86.5815,360.709 89.5,359C 91.0037,357.509 91.8371,355.676 92,353.5C 92.9143,355.664 94.081,357.664 95.5,359.5C 88.0089,363.745 80.6756,368.245 73.5,373C 71.9512,374.214 70.7845,375.714 70,377.5C 68.9164,376.335 68.0831,375.002 67.5,373.5C 71.0296,370.805 74.6963,368.305 78.5,366C 72.7676,363.714 66.9342,362.881 61,363.5C 59.8589,361.391 58.3589,359.558 56.5,358C 62.9978,360.803 69.9978,362.303 77.5,362.5C 79.2637,354.584 80.597,346.584 81.5,338.5 Z"/></g>
<g><path style="opacity:1" fill="#0e519d" d="M 288.5,350.5 C 282.697,357.782 279.364,366.115 278.5,375.5C 271.258,377.032 263.925,377.698 256.5,377.5C 260.501,360.492 271.168,351.492 288.5,350.5 Z"/></g>
<g><path style="opacity:1" fill="#878786" d="M 407.5,351.5 C 418.245,350.409 425.079,355.075 428,365.5C 428.667,369.5 428.667,373.5 428,377.5C 428.038,367.219 423.538,359.719 414.5,355C 407.081,352.444 403.915,354.944 405,362.5C 409.818,368.594 414.818,368.927 420,363.5C 419.027,370.071 415.194,372.238 408.5,370C 403.508,366.843 401.675,362.343 403,356.5C 404.707,354.963 406.207,353.296 407.5,351.5 Z"/></g>
<g><path style="opacity:1" fill="#fcf6f0" d="M 274.5,387.5 C 276.031,383.574 277.364,379.574 278.5,375.5C 292.386,373.138 305.219,368.138 317,360.5C 317.167,360.833 317.333,361.167 317.5,361.5C 304.689,372.637 290.355,381.303 274.5,387.5 Z"/></g>
<g><path style="opacity:1" fill="#10a472" d="M 278.5,375.5 C 277.364,379.574 276.031,383.574 274.5,387.5C 273.833,387.5 273.5,387.833 273.5,388.5C 263.976,391.471 254.309,393.804 244.5,395.5C 249.375,390.623 253.041,384.957 255.5,378.5C 255.5,377.833 255.833,377.5 256.5,377.5C 263.925,377.698 271.258,377.032 278.5,375.5 Z"/></g>
<g><path style="opacity:1" fill="#858584" d="M 97.5,383.5 C 104.299,384.109 105.966,387.275 102.5,393C 97.9322,394.65 95.2656,393.15 94.5,388.5C 95.0924,386.577 96.0924,384.911 97.5,383.5 Z"/></g>
<g><path style="opacity:1" fill="#838382" d="M 394.5,385.5 C 401.238,386.061 402.905,389.228 399.5,395C 394.932,396.65 392.266,395.15 391.5,390.5C 392.092,388.577 393.092,386.911 394.5,385.5 Z"/></g>
<g><path style="opacity:1" fill="#0f529f" d="M 273.5,388.5 C 262.13,407.702 245.13,418.035 222.5,419.5C 215.74,418.873 209.073,417.707 202.5,416C 199.282,415.1 196.282,413.933 193.5,412.5C 199.88,412.607 206.213,412.107 212.5,411C 224.807,409.513 235.14,404.347 243.5,395.5C 243.833,395.5 244.167,395.5 244.5,395.5C 254.309,393.804 263.976,391.471 273.5,388.5 Z"/></g>
<g><path style="opacity:1" fill="#818180" d="M 129.5,391.5 C 140.619,398.779 151.619,406.279 162.5,414C 160.457,417.253 158.29,420.42 156,423.5C 155.376,425.464 155.876,427.131 157.5,428.5C 156.833,429.833 155.833,430.833 154.5,431.5C 149.126,427.622 143.626,423.955 138,420.5C 135.33,421.931 134.497,423.931 135.5,426.5C 139.833,429.667 144.167,432.833 148.5,436C 145.623,440.255 142.623,444.422 139.5,448.5C 137.37,447.533 135.37,446.366 133.5,445C 135.833,442 138.167,439 140.5,436C 130.833,429 121.167,422 111.5,415C 112.211,413.745 113.044,412.579 114,411.5C 118.667,414.833 123.333,418.167 128,421.5C 132.039,418.686 132.206,415.853 128.5,413C 124.667,410.5 120.833,408 117,405.5C 116.564,403.704 117.231,402.371 119,401.5C 128.743,407.623 138.243,414.123 147.5,421C 148.449,421.617 149.282,421.451 150,420.5C 151.377,418.246 152.877,416.08 154.5,414C 145.337,407.662 136.337,401.162 127.5,394.5C 128.193,393.482 128.859,392.482 129.5,391.5 Z"/></g>
<g><path style="opacity:1" fill="#80807f" d="M 364.5,396.5 C 366.017,396.511 367.184,397.177 368,398.5C 373.5,406.833 379,415.167 384.5,423.5C 387.093,420.551 389.093,420.884 390.5,424.5C 378.131,433.525 365.464,442.191 352.5,450.5C 351.447,449.562 350.78,448.395 350.5,447C 352.167,445.333 353.833,443.667 355.5,442C 352.756,437.18 349.756,432.513 346.5,428C 348.062,425.885 350.062,424.885 352.5,425C 355.672,429.665 359.005,434.165 362.5,438.5C 364.389,437.396 366.055,436.063 367.5,434.5C 364.5,429.833 361.5,425.167 358.5,420.5C 359.834,418.005 361.834,416.838 364.5,417C 367.062,421.968 370.228,426.468 374,430.5C 377.916,429.65 378.916,427.65 377,424.5C 372.167,417.5 367.333,410.5 362.5,403.5C 354.258,409.539 345.758,415.205 337,420.5C 335.978,419.646 335.145,418.646 334.5,417.5C 344.179,409.998 354.179,402.998 364.5,396.5 Z"/></g>
<g><path style="opacity:1" fill="#818180" d="M 172.5,418.5 C 182.032,421.05 191.365,424.217 200.5,428C 197.961,433.991 195.961,440.158 194.5,446.5C 185.092,444.148 175.759,441.481 166.5,438.5C 168.705,431.887 170.705,425.22 172.5,418.5 Z"/></g>
<g><path style="opacity:1" fill="#fbd4b1" d="M 224.5,420.5 C 237.149,421.322 249.815,421.655 262.5,421.5C 257.511,422.166 252.344,422.499 247,422.5C 239.272,422.684 231.772,422.017 224.5,420.5 Z"/></g>
<g><path style="opacity:1" fill="#80807f" d="M 323.5,420.5 C 324.5,420.5 325.5,420.5 326.5,420.5C 326.5,422.167 326.5,423.833 326.5,425.5C 325.167,425.5 323.833,425.5 322.5,425.5C 325.421,437.933 328.755,450.266 332.5,462.5C 330.738,462.357 329.071,462.691 327.5,463.5C 325.579,460.404 324.246,457.07 323.5,453.5C 312.363,456.034 301.363,459.034 290.5,462.5C 290.5,460.833 290.5,459.167 290.5,457.5C 300.597,454.913 310.597,451.913 320.5,448.5C 320.833,448 321.167,447.5 321.5,447C 318.969,439.739 316.635,432.406 314.5,425C 317.366,423.198 320.366,421.698 323.5,420.5 Z"/></g>
<g><path style="opacity:1" fill="#f6f6f6" d="M 177.5,425.5 C 182.696,426.565 187.696,428.232 192.5,430.5C 190.905,433.68 189.905,437.013 189.5,440.5C 184.359,439.297 179.359,437.63 174.5,435.5C 176.121,432.348 177.121,429.015 177.5,425.5 Z"/></g>
<g><path style="opacity:1" fill="#80807f" d="M 291.5,426.5 C 294.278,426.022 296.278,427.022 297.5,429.5C 300.991,427.868 304.658,426.868 308.5,426.5C 308.677,428.981 307.677,430.814 305.5,432C 312.553,439.423 311.553,445.757 302.5,451C 293.009,455.197 286.676,452.531 283.5,443C 283.645,441.774 283.978,440.607 284.5,439.5C 282.205,438.864 280.539,437.531 279.5,435.5C 282.488,433.448 285.821,432.281 289.5,432C 290.711,430.887 290.711,429.72 289.5,428.5C 290.243,427.818 290.909,427.151 291.5,426.5 Z"/></g>
<g><path style="opacity:1" fill="#80807f" d="M 207.5,430.5 C 209.5,430.833 211.5,431.167 213.5,431.5C 209.825,443.861 205.992,456.194 202,468.5C 201.481,469.516 200.647,470.182 199.5,470.5C 187.664,466.888 175.998,462.888 164.5,458.5C 165.967,454.931 167.134,451.264 168,447.5C 170.315,445.17 172.815,445.17 175.5,447.5C 174.346,450.452 173.346,453.452 172.5,456.5C 180.007,459.558 187.674,462.225 195.5,464.5C 200.088,453.403 204.088,442.07 207.5,430.5 Z"/></g>
<g><path style="opacity:1" fill="#80807f" d="M 231.5,438.5 C 230.51,444.645 230.177,450.978 230.5,457.5C 237.687,457.825 244.687,457.491 251.5,456.5C 251.5,448.833 251.5,441.167 251.5,433.5C 253.833,433.5 256.167,433.5 258.5,433.5C 258.5,437.5 258.5,441.5 258.5,445.5C 259.833,445.5 261.167,445.5 262.5,445.5C 262.5,441.5 262.5,437.5 262.5,433.5C 264.5,433.5 266.5,433.5 268.5,433.5C 268.5,447.5 268.5,461.5 268.5,475.5C 266.5,475.5 264.5,475.5 262.5,475.5C 262.5,467.167 262.5,458.833 262.5,450.5C 261.167,450.5 259.833,450.5 258.5,450.5C 258.5,458.833 258.5,467.167 258.5,475.5C 256.167,475.5 253.833,475.5 251.5,475.5C 251.5,470.833 251.5,466.167 251.5,461.5C 242.5,461.5 233.5,461.5 224.5,461.5C 224.5,452.167 224.5,442.833 224.5,433.5C 231.5,433.5 238.5,433.5 245.5,433.5C 245.5,435.167 245.5,436.833 245.5,438.5C 240.833,438.5 236.167,438.5 231.5,438.5 Z"/></g>
<g><path style="opacity:1" fill="#f9f9f9" d="M 293.5,435.5 C 300.827,434.329 303.994,437.329 303,444.5C 298.951,449.818 294.951,449.818 291,444.5C 289.927,440.9 290.76,437.9 293.5,435.5 Z"/></g>
<g><path style="opacity:1" fill="#bdbdbd" d="M 231.5,438.5 C 231.5,444.5 231.5,450.5 231.5,456.5C 238.167,456.5 244.833,456.5 251.5,456.5C 244.687,457.491 237.687,457.825 230.5,457.5C 230.177,450.978 230.51,444.645 231.5,438.5 Z"/></g>
</svg>
